<svg width="102" height="70" viewBox="0 0 102 70" fill="none" xmlns="http://www.w3.org/2000/svg">
<path d="M6.39844 56.5723H15.2344V60H0.837891V57.6514L9.64844 44.9561H0.787109V41.5156H15.1455V43.8008L6.39844 56.5723ZM24.9971 58.5146C24.0915 59.6742 22.8685 60.2539 21.3281 60.2539C19.8216 60.2539 18.679 59.818 17.9004 58.9463C17.1302 58.0661 16.7451 56.805 16.7451 55.1631V46.2637H21.0234V55.1885C21.0234 56.3649 21.5947 56.9531 22.7373 56.9531C23.7191 56.9531 24.4173 56.6019 24.832 55.8994V46.2637H29.1357V60H25.124L24.9971 58.5146ZM38.6826 56.1406C38.6826 55.7767 38.4922 55.4847 38.1113 55.2646C37.7305 55.0446 37.0068 54.8161 35.9404 54.5791C34.874 54.3421 33.9938 54.0332 33.2998 53.6523C32.6058 53.263 32.0768 52.7933 31.7129 52.2432C31.349 51.693 31.167 51.0625 31.167 50.3516C31.167 49.0905 31.6875 48.0537 32.7285 47.2412C33.7695 46.4202 35.1322 46.0098 36.8164 46.0098C38.6276 46.0098 40.0833 46.4202 41.1836 47.2412C42.2839 48.0622 42.834 49.1413 42.834 50.4785H38.543C38.543 49.3783 37.9632 48.8281 36.8037 48.8281C36.3551 48.8281 35.9785 48.9551 35.6738 49.209C35.3691 49.4544 35.2168 49.7633 35.2168 50.1357C35.2168 50.5166 35.403 50.8255 35.7754 51.0625C36.1478 51.2995 36.7402 51.4941 37.5527 51.6465C38.3737 51.7988 39.0931 51.9808 39.7109 52.1924C41.776 52.9033 42.8086 54.1771 42.8086 56.0137C42.8086 57.2663 42.25 58.2861 41.1328 59.0732C40.0241 59.8604 38.5853 60.2539 36.8164 60.2539C35.64 60.2539 34.5905 60.0423 33.668 59.6191C32.7454 59.196 32.026 58.6204 31.5098 57.8926C30.9935 57.1647 30.7354 56.3988 30.7354 55.5947H34.7344C34.7513 56.2295 34.9629 56.695 35.3691 56.9912C35.7754 57.279 36.2959 57.4229 36.9307 57.4229C37.5146 57.4229 37.9505 57.3044 38.2383 57.0674C38.5345 56.8304 38.6826 56.5215 38.6826 56.1406ZM49.8037 42.8486V46.2637H52.0635V49.2344H49.8037V55.5186C49.8037 56.0348 49.8968 56.3945 50.083 56.5977C50.2692 56.8008 50.6374 56.9023 51.1875 56.9023C51.6107 56.9023 51.9661 56.877 52.2539 56.8262V59.8857C51.4837 60.1312 50.6797 60.2539 49.8418 60.2539C48.3691 60.2539 47.2816 59.9069 46.5791 59.2129C45.8766 58.5189 45.5254 57.4652 45.5254 56.0518V49.2344H43.7734V46.2637H45.5254V42.8486H49.8037ZM60.4043 60.2539C58.2969 60.2539 56.5915 59.6276 55.2881 58.375C53.9847 57.1139 53.333 55.4762 53.333 53.4619V53.1064C53.333 51.7015 53.5911 50.4616 54.1074 49.3867C54.6322 48.3118 55.3939 47.4824 56.3926 46.8984C57.3913 46.306 58.5762 46.0098 59.9473 46.0098C61.877 46.0098 63.4004 46.6107 64.5176 47.8125C65.6348 49.0059 66.1934 50.6732 66.1934 52.8145V54.4775H57.6875C57.8398 55.2477 58.1742 55.8529 58.6904 56.293C59.2067 56.7331 59.8753 56.9531 60.6963 56.9531C62.0505 56.9531 63.1084 56.4792 63.8701 55.5312L65.8252 57.8418C65.292 58.5781 64.5345 59.1663 63.5527 59.6064C62.5794 60.0381 61.5299 60.2539 60.4043 60.2539ZM59.9219 49.3105C58.6693 49.3105 57.9245 50.14 57.6875 51.7988H62.0039V51.4688C62.0208 50.7832 61.8473 50.2542 61.4834 49.8818C61.1195 49.501 60.599 49.3105 59.9219 49.3105ZM73.7344 56.9531C74.3353 56.9531 74.8008 56.7923 75.1309 56.4707C75.4609 56.1406 75.6217 55.6836 75.6133 55.0996H79.625C79.625 56.6061 79.0833 57.8418 78 58.8066C76.9251 59.7715 75.5371 60.2539 73.8359 60.2539C71.8385 60.2539 70.2643 59.6276 69.1133 58.375C67.9622 57.1224 67.3867 55.3874 67.3867 53.1699V52.9922C67.3867 51.6042 67.6406 50.3812 68.1484 49.3232C68.6647 48.2568 69.4053 47.4401 70.3701 46.873C71.335 46.2975 72.4775 46.0098 73.7979 46.0098C75.5837 46.0098 77.0013 46.5049 78.0508 47.4951C79.1003 48.4854 79.625 49.8268 79.625 51.5195H75.6133C75.6133 50.8086 75.4398 50.2627 75.0928 49.8818C74.7458 49.501 74.2803 49.3105 73.6963 49.3105C72.5876 49.3105 71.9401 50.0173 71.7539 51.4307C71.6947 51.8792 71.665 52.4971 71.665 53.2842C71.665 54.6637 71.8301 55.6201 72.1602 56.1533C72.4902 56.6865 73.015 56.9531 73.7344 56.9531ZM85.6172 47.7363C86.5312 46.5853 87.6992 46.0098 89.1211 46.0098C90.6361 46.0098 91.7786 46.4583 92.5488 47.3555C93.319 48.2526 93.7126 49.5771 93.7295 51.3291V60H89.4385V51.4307C89.4385 50.7028 89.2904 50.1696 88.9941 49.8311C88.6979 49.484 88.1943 49.3105 87.4834 49.3105C86.6032 49.3105 85.9811 49.5898 85.6172 50.1484V60H81.3389V40.5H85.6172V47.7363Z" fill="#132D3F"/>
<path d="M98.7568 55.8486C99.4339 55.8486 99.9967 56.0518 100.445 56.458C100.894 56.8558 101.118 57.3678 101.118 57.9941C101.118 58.6204 100.894 59.1367 100.445 59.543C99.9967 59.9408 99.4339 60.1396 98.7568 60.1396C98.0713 60.1396 97.5042 59.9365 97.0557 59.5303C96.6156 59.124 96.3955 58.612 96.3955 57.9941C96.3955 57.3763 96.6156 56.8643 97.0557 56.458C97.5042 56.0518 98.0713 55.8486 98.7568 55.8486Z" fill="#2F80ED"/>
<g clip-path="url(#clip0)">
<path d="M63.5 20.9219V29.1574C63.5 33.6326 54.0929 35.75 48.875 35.75C43.9155 35.75 34.25 33.488 34.25 29.1574V18.9296L48.875 26.832L63.5 20.9219ZM50.3651 3.25L29.375 12.5938L48.875 23.1562L66.75 15.9786V27.625H70V14.2188L50.3651 3.25ZM71.625 35.75H65.125C66.0643 34.125 66.75 31.6875 66.75 29.25H70C70 31.7135 70.6354 33.8959 71.625 35.75Z" fill="#2F80ED"/>
</g>
<defs>
<clipPath id="clip0">
<rect width="39" height="39" fill="white" transform="translate(31)"/>
</clipPath>
</defs>
</svg>
